<?xml version="1.0" encoding="iso-8859-1"?>
<!-- Generator: Adobe Illustrator 19.0.0, SVG Export Plug-In . SVG Version: 6.00 Build 0)  -->
<svg version="1.1" id="Layer_1" xmlns="http://www.w3.org/2000/svg" xmlns:xlink="http://www.w3.org/1999/xlink" x="0px" y="0px"
	 viewBox="0 0 512.281 512.281" style="enable-background:new 0 0 512.281 512.281;" xml:space="preserve">
<g transform="translate(-1)">
	<g>
		<g>
			<path d="M513.164,464.783c-0.223-17.474-9.169-31.032-23.144-41.273c-6.948-5.093-11.026-12.823-11.026-20.978V294.227
				c-7.891-80.594-74.017-140.866-167.734-184.065c-4.719-2.174-9.54-4.039-14.43-5.616c27.887-28.402,39.103-49.334,36.939-64.899
				c-1.502-10.792-11.254-18.486-22.165-18.486h-28.877c-13.654,0-35.007-5.606-57.147-13.507
				c-10.173-3.631-20.87-3.986-30.44-0.526c-8.772,3.183-15.105,8.728-19.025,15.938c-6.232,11.455-4.81,25.741,2.975,36.648
				l33.27,46.575c-3.158,1.165-6.283,2.452-9.365,3.872c-93.719,43.2-159.844,103.472-167.695,183.23l-0.041,109.141
				c0,8.155-4.078,15.885-11.027,20.979c-13.974,10.24-22.92,23.798-23.103,40.848c-0.604,7.075,0.809,14.862,5.847,22.36
				c8.923,13.28,26.526,20.841,53.883,20.841h392.533c27.358,0,44.961-7.561,53.883-20.841
				C512.315,479.22,513.729,471.433,513.164,464.783z M191.109,31.22c1.955-3.595,5.051-6.306,9.845-8.046
				c5.615-2.03,12.272-1.809,18.89,0.553c23.969,8.554,46.618,14.5,62.883,14.5h28.877c2.724,0,4.985,1.783,5.261,3.77
				c1.356,9.754-9.154,28.179-37.594,55.963h-51.886L192.98,49.795C188.854,44.015,188.126,36.702,191.109,31.22z M493.111,477.201
				c-5.411,8.053-17.608,13.292-39.717,13.292H60.861c-22.109,0-34.306-5.239-39.717-13.292c-2.58-3.84-3.311-7.869-3.047-10.975
				c0.008-0.093,0.098-1.332,0.098-1.332c0-11.035,5.987-20.186,16.129-27.617c11.255-8.251,18.005-21.045,18.005-34.744V294.227
				c7.041-71.112,69.091-127.67,157.812-168.566c29.809-13.735,64.166-13.735,93.977,0.001
				c88.72,40.895,150.77,97.454,157.852,169.401l-0.041,107.469c0,13.7,6.75,26.494,18.003,34.743
				c10.143,7.432,16.13,16.583,16.13,27.618l0.102,1.317C496.422,469.331,495.691,473.361,493.111,477.201z"/>
			<path d="M293.4,148.908c-11.454-5.272-23.671-7.952-36.272-7.952s-24.818,2.679-36.268,7.95
				C142.093,185.213,85.275,233.723,77.987,295.51c-0.552,4.68,2.795,8.922,7.475,9.474c4.68,0.552,8.922-2.795,9.474-7.475
				c6.356-53.886,59.334-99.118,133.065-133.103c9.209-4.239,18.992-6.384,29.128-6.384c10.136,0,19.919,2.145,29.131,6.386
				c73.726,33.983,126.705,79.215,133.061,133.101c0.552,4.68,4.794,8.027,9.474,7.475c4.68-0.552,8.027-4.794,7.475-9.474
				C428.981,233.723,372.163,185.213,293.4,148.908z"/>
		</g>
	</g>
</g>
<g>
</g>
<g>
</g>
<g>
</g>
<g>
</g>
<g>
</g>
<g>
</g>
<g>
</g>
<g>
</g>
<g>
</g>
<g>
</g>
<g>
</g>
<g>
</g>
<g>
</g>
<g>
</g>
<g>
</g>
</svg>
