<?xml version="1.0" encoding="iso-8859-1"?>
<!-- Generator: Adobe Illustrator 19.0.0, SVG Export Plug-In . SVG Version: 6.00 Build 0)  -->
<svg version="1.1" id="Layer_1" xmlns="http://www.w3.org/2000/svg" xmlns:xlink="http://www.w3.org/1999/xlink" x="0px" y="0px"
	 viewBox="0 0 503.609 503.609" style="enable-background:new 0 0 503.609 503.609;" xml:space="preserve">
<g>
	<g>
		<path d="M495.214,486.82H383.756l-52.224-156.672l117.272-62.545c0.003-0.002,0.006-0.004,0.01-0.006
			c0.094-0.05,0.183-0.108,0.274-0.161c2.998-1.735,4.281-4.655,4.16-7.509V243.41h8.393c4.636,0,8.393-3.758,8.393-8.393
			s-3.758-8.393-8.393-8.393h-8.393v-8.393h8.393c4.636,0,8.393-3.758,8.393-8.393c0-4.636-3.758-8.393-8.393-8.393h-8.393v-8.393
			h8.393c4.636,0,8.393-3.758,8.393-8.393s-3.758-8.393-8.393-8.393h-33.574c-4.636,0-8.393,3.758-8.393,8.393
			s3.758,8.393,8.393,8.393h8.393v8.393h-8.393c-4.636,0-8.393,3.758-8.393,8.393c0,4.636,3.758,8.393,8.393,8.393h8.393v8.393
			h-8.393c-4.636,0-8.393,3.758-8.393,8.393s3.758,8.393,8.393,8.393h8.393v8.393H327.345v-70.505l121.458-64.778
			c0.003-0.002,0.006-0.004,0.01-0.006c0.094-0.05,0.183-0.108,0.274-0.161c2.998-1.735,4.281-4.655,4.16-7.509V92.328h8.393
			c4.636,0,8.393-3.758,8.393-8.393s-3.758-8.393-8.393-8.393h-8.393v-8.393h8.393c4.636,0,8.393-3.758,8.393-8.393
			c0-4.636-3.758-8.393-8.393-8.393h-8.393v-8.393h8.393c4.636,0,8.393-3.758,8.393-8.393s-3.758-8.393-8.393-8.393h-33.574
			c-4.636,0-8.393,3.758-8.393,8.393s3.758,8.393,8.393,8.393h8.393v8.393h-8.393c-4.636,0-8.393,3.758-8.393,8.393
			c0,4.636,3.758,8.393,8.393,8.393h8.393v8.393h-8.393c-4.636,0-8.393,3.758-8.393,8.393s3.758,8.393,8.393,8.393h8.393v8.393
			H324.548l-34.973-83.934h37.77v25.18c0,4.636,3.758,8.393,8.393,8.393c4.636,0,8.393-3.758,8.393-8.393V8.393
			c0-4.636-3.758-8.393-8.393-8.393h-58.754h-50.361H167.87c-4.636,0-8.393,3.758-8.393,8.393v33.574
			c0,4.636,3.758,8.393,8.393,8.393s8.393-3.758,8.393-8.393v-25.18h37.77l-34.973,83.934H67.149v-8.393h8.393
			c4.636,0,8.393-3.758,8.393-8.393s-3.758-8.393-8.393-8.393h-8.393v-8.393h8.393c4.636,0,8.393-3.758,8.393-8.393
			c0-4.636-3.758-8.393-8.393-8.393h-8.393v-8.393h8.393c4.636,0,8.393-3.758,8.393-8.393s-3.758-8.393-8.393-8.393H41.968
			c-4.636,0-8.393,3.758-8.393,8.393s3.758,8.393,8.393,8.393h8.393v8.393h-8.393c-4.636,0-8.393,3.758-8.393,8.393
			c0,4.636,3.758,8.393,8.393,8.393h8.393v8.393h-8.393c-4.636,0-8.393,3.758-8.393,8.393s3.758,8.393,8.393,8.393h8.393v16.516
			c-0.122,2.855,1.161,5.775,4.16,7.509c0.092,0.054,0.181,0.111,0.274,0.161c0.003,0.002,0.006,0.004,0.01,0.006l121.458,64.778
			v70.505H67.149v-8.393h8.393c4.636,0,8.393-3.758,8.393-8.393s-3.758-8.393-8.393-8.393h-8.393v-8.393h8.393
			c4.636,0,8.393-3.758,8.393-8.393c0-4.636-3.758-8.393-8.393-8.393h-8.393v-8.393h8.393c4.636,0,8.393-3.758,8.393-8.393
			s-3.758-8.393-8.393-8.393H41.968c-4.636,0-8.393,3.758-8.393,8.393s3.758,8.393,8.393,8.393h8.393v8.393h-8.393
			c-4.636,0-8.393,3.758-8.393,8.393c0,4.636,3.758,8.393,8.393,8.393h8.393v8.393h-8.393c-4.636,0-8.393,3.758-8.393,8.393
			s3.758,8.393,8.393,8.393h8.393v16.516c-0.122,2.855,1.161,5.775,4.16,7.509c0.092,0.054,0.181,0.111,0.274,0.161
			c0.003,0.002,0.006,0.004,0.01,0.006l117.272,62.545L119.853,486.82H8.395c-4.636,0-8.393,3.758-8.393,8.393
			s3.758,8.393,8.393,8.393h117.333c0.009,0,0.018,0,0.027,0h252.099c0.009,0,0.018,0,0.027,0h117.333
			c4.636,0,8.393-3.758,8.393-8.393S499.85,486.82,495.214,486.82z M251.804,117.508h58.754v50.361H193.05v-50.361H251.804z
			 M313.014,335.738h2.686l43.842,131.525l-95.289-87.003L313.014,335.738z M251.804,368.894l-36.314-33.156h72.627L251.804,368.894
			z M267.641,218.23l42.917-26.823v53.647L267.641,218.23z M289.686,251.803h-75.763l37.881-23.676L289.686,251.803z
			 M251.804,208.332l-37.881-23.676h75.763L251.804,208.332z M235.968,218.23l-42.917,26.823v-53.647L235.968,218.23z
			 M310.559,268.59v46.658l-4.055,3.702H197.105l-4.055-3.702V268.59H310.559z M187.909,335.738h2.686l48.762,44.522l-95.289,87.003
			L187.909,335.738z M251.804,391.625l104.261,95.195H147.544L251.804,391.625z M411.28,268.59l-83.934,44.765V268.59H411.28z
			 M327.345,162.273v-44.765h83.934L327.345,162.273z M232.22,16.787h39.169l34.973,83.934h-54.557h-54.557L232.22,16.787z
			 M92.329,117.508h83.934v44.765L92.329,117.508z M176.263,268.59v44.765L92.329,268.59H176.263z"/>
	</g>
</g>
<g>
</g>
<g>
</g>
<g>
</g>
<g>
</g>
<g>
</g>
<g>
</g>
<g>
</g>
<g>
</g>
<g>
</g>
<g>
</g>
<g>
</g>
<g>
</g>
<g>
</g>
<g>
</g>
<g>
</g>
</svg>
