<?xml version="1.0" encoding="utf-8"?><!DOCTYPE svg>
<!-- Generator: Adobe Illustrator 19.0.0, SVG Export Plug-In . SVG Version: 6.00 Build 0)  -->
<svg version="1.1" id="Layer_1" xmlns="http://www.w3.org/2000/svg" xmlns:xlink="http://www.w3.org/1999/xlink" x="0px" y="0px"
	 viewBox="0 0 512 512" style="enable-background:new 0 0 512 512;" xml:space="preserve">
<g>
	<g>
		<g>
			<path d="M500.105,218.29l-107.572,46.102v-38.259c0-6.126-6.264-10.257-11.895-7.843l-107.572,46.102v-38.259
				c0-6.126-6.264-10.257-11.895-7.843L153.6,264.392V243.2V192v-68.267c0-4.713-3.821-8.533-8.533-8.533H8.533
				C3.82,115.2,0,119.02,0,123.733V192v51.2v128v51.2v68.267c0,4.713,3.82,8.533,8.533,8.533h136.533h42.667h34.133h42.667H307.2
				h34.133H384h42.667H460.8h42.667c4.713,0,8.533-3.82,8.533-8.533V226.133C512,220.007,505.736,215.877,500.105,218.29z
				 M17.067,251.733h119.467v25.6v85.333H17.067V251.733z M17.067,200.533h119.467v34.133H17.067V200.533z M17.067,379.733h119.467
				v34.133H17.067V379.733z M136.533,132.267v51.2H17.067v-51.2H136.533z M17.067,430.933h119.467v51.2H17.067V430.933z
				 M153.6,422.4v-51.2v-88.24L256,239.074v38.259v204.8h-25.6v-51.2c0-4.713-3.82-8.533-8.533-8.533h-34.133
				c-4.713,0-8.533,3.82-8.533,8.533v51.2h-25.6V422.4z M196.267,482.133v-42.667h17.067v42.667H196.267z M273.067,282.96
				l102.4-43.886v38.259v204.8h-25.6v-51.2c0-4.713-3.82-8.533-8.533-8.533H307.2c-4.713,0-8.533,3.82-8.533,8.533v51.2h-25.6
				V282.96z M315.733,482.133v-42.667H332.8v42.667H315.733z M435.2,482.133v-42.667h17.067v42.667H435.2z M494.933,482.133h-25.6
				v-51.2c0-4.713-3.82-8.533-8.533-8.533h-34.133c-4.713,0-8.533,3.82-8.533,8.533v51.2h-25.6V282.96l102.4-43.886V482.133z"/>
			<path d="M307.2,337.067h34.133c4.713,0,8.533-3.82,8.533-8.533V294.4c0-4.713-3.82-8.533-8.533-8.533H307.2
				c-4.713,0-8.533,3.821-8.533,8.533v34.133C298.667,333.246,302.487,337.067,307.2,337.067z M315.733,302.933H332.8V320h-17.067
				V302.933z"/>
			<path d="M187.733,337.067h34.133c4.713,0,8.533-3.82,8.533-8.533V294.4c0-4.713-3.82-8.533-8.533-8.533h-34.133
				c-4.713,0-8.533,3.821-8.533,8.533v34.133C179.2,333.246,183.021,337.067,187.733,337.067z M196.267,302.933h17.067V320h-17.067
				V302.933z"/>
			<path d="M426.667,337.067H460.8c4.713,0,8.533-3.82,8.533-8.533V294.4c0-4.713-3.82-8.533-8.533-8.533h-34.133
				c-4.713,0-8.533,3.821-8.533,8.533v34.133C418.133,333.246,421.954,337.067,426.667,337.067z M435.2,302.933h17.067V320H435.2
				V302.933z"/>
			<path d="M34.133,64H102.4c9.367,0,17.067,7.699,17.067,17.067c0,4.713,3.82,8.533,8.533,8.533s8.533-3.82,8.533-8.533
				c0-18.793-15.341-34.133-34.133-34.133H34.133c-4.674,0-8.533-3.859-8.533-8.533s3.859-8.533,8.533-8.533h34.133
				c4.713,0,8.533-3.82,8.533-8.533s-3.82-8.533-8.533-8.533H34.133c-14.1,0-25.6,11.5-25.6,25.6S20.034,64,34.133,64z"/>
			<path d="M187.733,371.2h34.133c4.713,0,8.533-3.82,8.533-8.533s-3.82-8.533-8.533-8.533h-34.133
				c-4.713,0-8.533,3.821-8.533,8.533S183.021,371.2,187.733,371.2z"/>
			<path d="M187.733,405.333h34.133c4.713,0,8.533-3.82,8.533-8.533s-3.82-8.533-8.533-8.533h-34.133
				c-4.713,0-8.533,3.82-8.533,8.533S183.021,405.333,187.733,405.333z"/>
			<path d="M307.2,371.2h34.133c4.713,0,8.533-3.82,8.533-8.533s-3.82-8.533-8.533-8.533H307.2c-4.713,0-8.533,3.821-8.533,8.533
				S302.487,371.2,307.2,371.2z"/>
			<path d="M307.2,405.333h34.133c4.713,0,8.533-3.82,8.533-8.533s-3.82-8.533-8.533-8.533H307.2c-4.713,0-8.533,3.82-8.533,8.533
				S302.487,405.333,307.2,405.333z"/>
			<path d="M426.667,371.2H460.8c4.713,0,8.533-3.82,8.533-8.533s-3.82-8.533-8.533-8.533h-34.133c-4.713,0-8.533,3.821-8.533,8.533
				S421.954,371.2,426.667,371.2z"/>
			<path d="M426.667,405.333H460.8c4.713,0,8.533-3.82,8.533-8.533s-3.82-8.533-8.533-8.533h-34.133
				c-4.713,0-8.533,3.82-8.533,8.533S421.954,405.333,426.667,405.333z"/>
		</g>
	</g>
</g>
<g>
</g>
<g>
</g>
<g>
</g>
<g>
</g>
<g>
</g>
<g>
</g>
<g>
</g>
<g>
</g>
<g>
</g>
<g>
</g>
<g>
</g>
<g>
</g>
<g>
</g>
<g>
</g>
<g>
</g>
</svg>
