<?xml version="1.0" encoding="iso-8859-1"?>
<!-- Generator: Adobe Illustrator 19.0.0, SVG Export Plug-In . SVG Version: 6.00 Build 0)  -->
<svg version="1.1" id="Layer_1" xmlns="http://www.w3.org/2000/svg" xmlns:xlink="http://www.w3.org/1999/xlink" x="0px" y="0px"
	 viewBox="0 0 512 512" style="enable-background:new 0 0 512 512;" xml:space="preserve">
<g>
	<g>
		<g>
			<path d="M503.467,490.667H314.896l-18.989-183.562c1.006-0.726,1.993-1.475,2.956-2.253l149.949,71.789
				c12.723,6.083,27.971,1.045,34.546-11.422c6.598-12.501,2.119-27.977-10.142-35.018l-149.333-85.694
				c-2.386-22.671-15.868-42.029-34.916-52.556l-6.521-162.453C281.737,15.331,270.103,4.267,256,4.267
				s-25.737,11.065-26.443,25.147l-6.524,162.537c-19.049,10.527-32.531,29.886-34.916,52.559l-149.33,85.693
				c-12.262,7.029-16.744,22.517-10.143,35.022c6.577,12.459,21.825,17.501,34.541,11.421l149.955-71.792
				c0.963,0.778,1.949,1.526,2.954,2.252l-18.989,183.562H8.533C3.82,490.667,0,494.487,0,499.2s3.82,8.533,8.533,8.533h186.805
				h121.323h186.805c4.713,0,8.533-3.82,8.533-8.533S508.18,490.667,503.467,490.667z M468.263,357.256
				c-2.299,4.359-7.63,6.12-12.085,3.99l-144.954-69.398c5.167-7.101,8.994-15.233,11.12-24.033
				c0.051-0.211,0.098-0.424,0.147-0.636c0.223-0.965,0.427-1.936,0.609-2.916c0.03-0.158,0.07-0.313,0.099-0.472l141.52,81.211
				C469.008,347.466,470.574,352.878,468.263,357.256z M246.606,30.183c0.247-4.915,4.384-8.85,9.394-8.85s9.147,3.935,9.397,8.935
				l6.222,155.015c-2.118-0.496-4.272-0.894-6.461-1.187c-0.513-0.07-1.027-0.138-1.542-0.196c-0.404-0.045-0.808-0.087-1.214-0.125
				c-0.884-0.084-1.771-0.153-2.66-0.202c-0.207-0.011-0.415-0.018-0.623-0.027c-1.037-0.048-2.076-0.079-3.119-0.079
				s-2.082,0.031-3.119,0.079c-0.208,0.009-0.416,0.016-0.623,0.027c-0.89,0.049-1.776,0.118-2.66,0.202
				c-0.406,0.038-0.81,0.08-1.214,0.125c-0.515,0.058-1.028,0.126-1.54,0.196c-2.189,0.294-4.344,0.691-6.462,1.187L246.606,30.183z
				 M233.029,205.979l1.852-0.84c5.801-2.631,11.957-4.169,18.287-4.524c0.035-0.002,0.07-0.006,0.105-0.008
				c0.906-0.049,1.815-0.074,2.727-0.074s1.822,0.025,2.727,0.074c0.035,0.002,0.07,0.006,0.105,0.008
				c6.33,0.355,12.486,1.893,18.287,4.524l1.851,0.84c15.513,7.804,26.506,23.256,28.032,41.411l0.091,2.525
				c0.026,0.562,0.026,0.562,0.055,0.993c0.031,0.439,0.043,0.63,0.048,0.735c0,0.03,0.002,0.06,0.002,0.09
				c0,14.071-5.725,27.216-15.694,36.83l-1.372,1.323c-1.728,1.547-3.558,2.984-5.485,4.288l-2.186,1.324
				c-5.469,3.312-11.436,5.571-17.674,6.669c-0.048,0.008-0.095,0.017-0.143,0.026c-0.494,0.086-0.991,0.162-1.488,0.233
				c-0.353,0.049-0.708,0.093-1.063,0.135c-0.464,0.056-0.93,0.107-1.397,0.15c-0.562,0.051-1.126,0.096-1.693,0.129
				c-0.235,0.014-0.471,0.026-0.707,0.037c-0.762,0.034-1.527,0.058-2.297,0.058s-1.535-0.024-2.297-0.058
				c-0.236-0.011-0.472-0.023-0.707-0.037c-0.567-0.033-1.131-0.078-1.693-0.129c-0.467-0.043-0.933-0.094-1.398-0.15
				c-0.355-0.042-0.709-0.086-1.062-0.135c-0.498-0.071-0.994-0.147-1.489-0.233c-0.048-0.008-0.095-0.017-0.143-0.025
				c-6.238-1.098-12.205-3.358-17.674-6.669l-2.186-1.324c-1.937-1.31-3.775-2.754-5.51-4.31l-1.347-1.299
				c-9.97-9.615-15.694-22.76-15.694-36.831c0-0.03,0.002-0.059,0.002-0.089c0.004-0.096,0.014-0.253,0.035-0.558
				c0.042-0.608,0.042-0.608,0.068-1.17l0.091-2.531C206.525,229.232,217.517,213.782,233.029,205.979z M55.818,361.251
				c-4.447,2.126-9.783,0.362-12.082-3.993c-2.311-4.378-0.743-9.794,3.541-12.25l141.525-81.214
				c0.029,0.163,0.071,0.322,0.101,0.485c0.18,0.966,0.381,1.924,0.6,2.876c0.052,0.226,0.102,0.453,0.156,0.678
				c0.28,1.157,0.586,2.302,0.924,3.435c0.006,0.019,0.01,0.037,0.016,0.056c2.231,7.459,5.703,14.379,10.177,20.526L55.818,361.251
				z M214.262,490.667l18.091-174.878c3.664,1.353,7.481,2.385,11.411,3.096c0.122,0.022,0.244,0.044,0.366,0.065
				c0.812,0.142,1.628,0.274,2.45,0.387c0.34,0.048,0.682,0.087,1.023,0.13c0.659,0.081,1.319,0.161,1.984,0.223
				c0.563,0.053,1.13,0.09,1.696,0.129c0.485,0.033,0.967,0.075,1.455,0.098C253.821,319.97,254.908,320,256,320
				s2.179-0.031,3.263-0.083c0.488-0.023,0.97-0.065,1.455-0.098c0.566-0.039,1.133-0.076,1.696-0.129
				c0.665-0.062,1.324-0.142,1.984-0.223c0.341-0.043,0.683-0.082,1.023-0.13c0.822-0.114,1.637-0.245,2.45-0.387
				c0.122-0.022,0.244-0.043,0.366-0.065c3.929-0.711,7.746-1.743,11.411-3.096l10.146,98.078h-42.327
				c-4.713,0-8.533,3.82-8.533,8.533s3.82,8.533,8.533,8.533h44.092L293.325,448h-28.791c-4.713,0-8.533,3.82-8.533,8.533
				s3.82,8.533,8.533,8.533h30.557l2.648,25.6H214.262z"/>
			<path d="M136.533,209.067c0,4.713,3.82,8.533,8.533,8.533s8.533-3.82,8.533-8.533c0-18.873,15.26-34.133,34.133-34.133
				c4.713,0,8.533-3.82,8.533-8.533s-3.82-8.533-8.533-8.533C159.434,157.867,136.533,180.768,136.533,209.067z"/>
			<path d="M110.933,183.467c4.713,0,8.533-3.82,8.533-8.533c0-18.873,15.26-34.133,34.133-34.133c4.713,0,8.533-3.82,8.533-8.533
				s-3.821-8.533-8.533-8.533c-28.299,0-51.2,22.901-51.2,51.2C102.4,179.646,106.221,183.467,110.933,183.467z"/>
			<path d="M324.267,174.933c18.873,0,34.133,15.26,34.133,34.133c0,4.713,3.82,8.533,8.533,8.533s8.533-3.82,8.533-8.533
				c0-28.299-22.901-51.2-51.2-51.2c-4.713,0-8.533,3.82-8.533,8.533S319.554,174.933,324.267,174.933z"/>
			<path d="M358.4,140.8c18.873,0,34.133,15.26,34.133,34.133c0,4.713,3.821,8.533,8.533,8.533s8.533-3.82,8.533-8.533
				c0-28.299-22.901-51.2-51.2-51.2c-4.713,0-8.533,3.82-8.533,8.533S353.687,140.8,358.4,140.8z"/>
			<path d="M256,285.867c18.853,0,34.133-15.281,34.133-34.133c0-18.853-15.281-34.133-34.133-34.133
				c-18.853,0-34.133,15.281-34.133,34.133C221.867,270.586,237.147,285.867,256,285.867z M256,234.667
				c9.427,0,17.067,7.64,17.067,17.067c0,9.427-7.64,17.067-17.067,17.067c-9.427,0-17.067-7.64-17.067-17.067
				C238.933,242.306,246.573,234.667,256,234.667z"/>
		</g>
	</g>
</g>
<g>
</g>
<g>
</g>
<g>
</g>
<g>
</g>
<g>
</g>
<g>
</g>
<g>
</g>
<g>
</g>
<g>
</g>
<g>
</g>
<g>
</g>
<g>
</g>
<g>
</g>
<g>
</g>
<g>
</g>
</svg>
